<?xml version="1.0" encoding="UTF-8"?>
<svg id="_图层_1" xmlns="http://www.w3.org/2000/svg" xmlns:xlink="http://www.w3.org/1999/xlink" version="1.1" viewBox="0 0 1869.65 1120">
  <!-- Generator: Adobe Illustrator 30.7.0, SVG Export Plug-In . SVG Version: 2.1.4 Build 114)  -->
  <defs>
    <style>
      .st0 {
        fill: #9a5f17;
      }

      .st0, .st1, .st2, .st3, .st4, .st5, .st6, .st7, .st8, .st9, .st10, .st11, .st12, .st13, .st14, .st15, .st16, .st17, .st18, .st19, .st20, .st21, .st22, .st23, .st24, .st25, .st26 {
        isolation: isolate;
      }

      .st0, .st3, .st5, .st6, .st7, .st8, .st9, .st11, .st13, .st16, .st19, .st22, .st23 {
        font-family: Arial-BoldMT, Arial;
        font-weight: 700;
      }

      .st0, .st6, .st11, .st13, .st23 {
        font-size: 17px;
      }

      .st27 {
        fill: #65aaa5;
      }

      .st28 {
        stroke: #c5d0d8;
        stroke-width: .7px;
      }

      .st28, .st29, .st30, .st31, .st32, .st33, .st34, .st12, .st35, .st36, .st37, .st38, .st39, .st26, .st40 {
        fill: none;
      }

      .st1 {
        font-size: 22.72px;
      }

      .st1, .st2, .st4, .st41, .st18, .st24 {
        fill: #27384a;
      }

      .st1, .st2, .st4, .st18 {
        font-family: Georgia-Italic, Georgia;
      }

      .st1, .st2, .st4, .st18, .st25 {
        font-style: italic;
      }

      .st42 {
        fill: #b8d0f1;
      }

      .st43 {
        fill: #dbe9fa;
      }

      .st43, .st44, .st29, .st45, .st46, .st47, .st48, .st32, .st49, .st50, .st35, .st51, .st52, .st53, .st54, .st55, .st56, .st57, .st58, .st59, .st60, .st61, .st62, .st63, .st64, .st65, .st66, .st67, .st68, .st69, .st40, .st70, .st71, .st72 {
        stroke-width: 2px;
      }

      .st43, .st71 {
        stroke: #6f9ed7;
      }

      .st44 {
        fill: #f3f6f8;
        stroke-dasharray: 7 5;
      }

      .st44, .st65 {
        stroke: #7a8494;
      }

      .st29, .st73 {
        stroke: #3b7755;
      }

      .st2 {
        font-size: 14px;
      }

      .st74 {
        fill: #fffdfb;
      }

      .st74, .st31, .st34, .st36, .st37, .st39 {
        stroke-width: 3px;
      }

      .st74, .st36 {
        stroke: #bb7c52;
        stroke-dasharray: 14 10;
      }

      .st45 {
        fill: #f2faf5;
        stroke: #6da982;
      }

      .st75 {
        fill: #dceafe;
        stroke: #6292cf;
      }

      .st3 {
        fill: #8a8496;
        font-size: 24px;
      }

      .st4 {
        font-size: 16.23px;
      }

      .st5 {
        font-size: 16px;
      }

      .st5, .st6, .st76 {
        fill: #203448;
      }

      .st77, .st24 {
        font-family: AdobeSongStd-Light-GBpc-EUC-H, 'Adobe Song Std';
        font-weight: 300;
      }

      .st78 {
        fill: #edf5ff;
        stroke: #8eb0df;
      }

      .st79 {
        fill: #cf8d31;
      }

      .st80 {
        fill: #3d8f8a;
        stroke: #2f7a76;
      }

      .st80, .st81 {
        stroke-width: 1.1px;
      }

      .st82 {
        fill: #6b5ea7;
        stroke: #534890;
        stroke-width: 1.2px;
      }

      .st7 {
        font-size: 11px;
      }

      .st7, .st15, .st19, .st83 {
        fill: #486174;
      }

      .st84 {
        fill: #4f83cc;
      }

      .st85 {
        fill: #365a7d;
      }

      .st86 {
        fill: #9ed0ad;
      }

      .st87 {
        fill: #d9902f;
      }

      .st30 {
        stroke: #d8e5f4;
      }

      .st46 {
        fill: #8468c8;
        stroke: #654aa8;
      }

      .st88 {
        fill: #6f9fd8;
      }

      .st8 {
        font-size: 30px;
      }

      .st8, .st22 {
        fill: #172a3a;
      }

      .st31 {
        stroke: #4e9f70;
      }

      .st47 {
        fill: #fff1dc;
      }

      .st47, .st58 {
        stroke: #c78326;
      }

      .st48 {
        fill: #f8fdf9;
        stroke: #9acdaf;
      }

      .st32 {
        stroke: #d19a4c;
      }

      .st33 {
        stroke: #fff;
        stroke-opacity: .25;
      }

      .st9 {
        fill: #654aa8;
      }

      .st9, .st16 {
        font-size: 21px;
      }

      .st49 {
        fill: #fff0d9;
      }

      .st49, .st50 {
        stroke: #d49339;
      }

      .st50 {
        fill: #ffecd0;
      }

      .st34 {
        stroke: #4f83cc;
      }

      .st10 {
        fill: #334b5f;
        font-size: 15px;
      }

      .st10, .st15, .st89, .st17, .st21, .st90 {
        font-family: ArialMT, Arial;
      }

      .st91 {
        fill: #8a94a0;
      }

      .st11 {
        fill: #32714d;
      }

      .st12 {
        opacity: .85;
        stroke: #73b9d1;
        stroke-width: 7px;
      }

      .st13 {
        fill: #315f9e;
      }

      .st35 {
        stroke: #d7c9bf;
        stroke-dasharray: 8 7;
      }

      .st92 {
        fill: #5f9d61;
      }

      .st15 {
        font-size: 13px;
      }

      .st16, .st89, .st17, .st20, .st21, .st25 {
        fill: #231815;
      }

      .st89, .st17, .st18, .st20, .st24, .st25 {
        font-size: 18px;
      }

      .st93 {
        fill: #3478c7;
      }

      .st94 {
        fill: #f4b75e;
        stroke: #b97820;
      }

      .st94, .st95, .st96, .st97 {
        stroke-width: 1.5px;
      }

      .st51 {
        fill: #f7fbff;
        stroke: #9dbce7;
      }

      .st98 {
        fill: #d6e8d5;
      }

      .st52 {
        fill: #fff8ed;
        stroke: #d09a4d;
      }

      .st37 {
        stroke: #d9902f;
      }

      .st99 {
        fill: url(#_未命名的渐变_4);
        stroke: #9476d5;
      }

      .st99, .st100 {
        stroke-width: 2.5px;
      }

      .st53, .st66 {
        stroke: #65a67a;
      }

      .st53, .st72 {
        fill: #e3f3e8;
      }

      .st54 {
        fill: #f1ebff;
        stroke: #8468c8;
      }

      .st101 {
        fill: #8064c9;
      }

      .st38 {
        stroke: #c78b37;
        stroke-width: 1.8px;
      }

      .st102 {
        fill: #dd9c3e;
      }

      .st39 {
        stroke: #3478c7;
      }

      .st103 {
        fill: #65a77b;
      }

      .st104 {
        fill: #5a9c73;
      }

      .st55 {
        fill: #dff3e5;
        stroke: #4f966b;
      }

      .st105 {
        opacity: .9;
      }

      .st106 {
        opacity: .72;
      }

      .st107, .st26 {
        opacity: .7;
      }

      .st19 {
        font-size: 10px;
      }

      .st108 {
        fill: #d6eadc;
        stroke: #73aa8a;
      }

      .st109 {
        fill: #628ec9;
      }

      .st56 {
        fill: #fffaf2;
        stroke: #e2b878;
      }

      .st57 {
        fill: #fff7ea;
        stroke: #ca8a31;
      }

      .st58 {
        fill: #fde9ca;
      }

      .st110 {
        fill: #e7f1ff;
        stroke: #82a9db;
      }

      .st59 {
        fill: #edf8f1;
        stroke: #5f9f76;
      }

      .st60 {
        fill: url(#_未命名的渐变_3);
        stroke: #d9a65d;
      }

      .st61 {
        fill: #f4f7f4;
        stroke: #8aa0a8;
      }

      .st62 {
        fill: #ded1f7;
        stroke: #7255b8;
      }

      .st21 {
        font-size: 12.6px;
      }

      .st22 {
        font-size: 20px;
      }

      .st95 {
        stroke: #6e9ad3;
      }

      .st95, .st23, .st67, .st73 {
        fill: #fff;
      }

      .st63 {
        fill: url(#_未命名的渐变);
        stroke: #82a9dc;
      }

      .st81 {
        fill: #f4a261;
        stroke: #d07a3a;
      }

      .st100 {
        fill: #e4dafb;
        stroke: #7458bb;
      }

      .st111 {
        fill: #4e9f70;
      }

      .st112 {
        fill: #c9def8;
        stroke: #4e82c1;
      }

      .st113 {
        fill: #7ca4da;
      }

      .st64 {
        fill: #dfe6ee;
        stroke: #5d6b7a;
      }

      .st65 {
        fill: #eef2f6;
      }

      .st66 {
        fill: #dff1e5;
      }

      .st96 {
        fill: #dcefdc;
        stroke: #5a9872;
      }

      .st67 {
        stroke: #d18b2c;
      }

      .st68 {
        fill: url(#_未命名的渐变_2);
        stroke: #79b78e;
      }

      .st69 {
        fill: #e8fbfa;
        stroke: #65aaa5;
      }

      .st114 {
        fill: #f4ca8b;
      }

      .st97 {
        fill: #f2b454;
        stroke: #b8781e;
      }

      .st115 {
        fill: #dcebdd;
        stroke: #82b497;
      }

      .st25 {
        font-family: Arial-ItalicMT, Arial;
      }

      .st26 {
        stroke: #c7a25f;
        stroke-width: 4px;
      }

      .st40 {
        stroke: #365a7d;
      }

      .st116 {
        fill: #9fc1eb;
      }

      .st70 {
        fill: #f4f8fe;
        stroke: #79a4dc;
      }

      .st71 {
        fill: #e4effc;
      }

      .st72 {
        stroke: #4f9368;
      }
    </style>
    <linearGradient id="_未命名的渐变" data-name="未命名的渐变" x1="-240.6" y1="-.67" x2="-239.6" y2=".33" gradientTransform="translate(141333 224) scale(586 178)" gradientUnits="userSpaceOnUse">
      <stop offset="0" stop-color="#eaf3ff"/>
      <stop offset="1" stop-color="#c8ddff"/>
    </linearGradient>
    <linearGradient id="_未命名的渐变_2" data-name="未命名的渐变 2" x1="-240.61" y1="-.6" x2="-239.61" y2=".4" gradientTransform="translate(141333 439) scale(586 205)" gradientUnits="userSpaceOnUse">
      <stop offset="0" stop-color="#eaf9f0"/>
      <stop offset="1" stop-color="#cdeed9"/>
    </linearGradient>
    <linearGradient id="_未命名的渐变_3" data-name="未命名的渐变 3" x1="-240.6" y1="-.63" x2="-239.6" y2=".37" gradientTransform="translate(141333 682) scale(586 190)" gradientUnits="userSpaceOnUse">
      <stop offset="0" stop-color="#fff5e5"/>
      <stop offset="1" stop-color="#f8ddb3"/>
    </linearGradient>
    <linearGradient id="_未命名的渐变_4" data-name="未命名的渐变 4" x1="-240.35" y1="-.61" x2="-239.19" y2=".56" gradientTransform="translate(78975 412) scale(324 252)" gradientUnits="userSpaceOnUse">
      <stop offset="0" stop-color="#f3edff"/>
      <stop offset="1" stop-color="#ded1fb"/>
    </linearGradient>
  </defs>
  <rect class="st74" x="36.57" y="781.45" width="1817.29" height="293.38" rx="26" ry="26"/>
  <g class="st14">
    <g class="st14">
      <g class="st14">
        <g class="st14">
          <g class="st14">
            <text class="st8" transform="translate(108.13 64.16)"><tspan x="0" y="0">Inputs</tspan></text>
          </g>
        </g>
      </g>
    </g>
  </g>
  <g class="st14">
    <g class="st14">
      <g class="st14">
        <g class="st14">
          <g class="st14">
            <text class="st8" transform="translate(423 64.16)"><tspan x="0" y="0">Modality-specific encoders</tspan></text>
          </g>
        </g>
      </g>
    </g>
  </g>
  <g class="st14">
    <g class="st14">
      <g class="st14">
        <g class="st14">
          <g class="st14">
            <text class="st8" transform="translate(933 64.16)"><tspan x="0" y="0">Embeddings</tspan></text>
          </g>
        </g>
      </g>
    </g>
  </g>
  <g class="st14">
    <g class="st14">
      <g class="st14">
        <g class="st14">
          <g class="st14">
            <text class="st8" transform="translate(1158 64.1603)"><tspan x="0" y="0">Multimodal fusion</tspan></text>
          </g>
        </g>
      </g>
    </g>
  </g>
  <g class="st14">
    <g class="st14">
      <g class="st14">
        <g class="st14">
          <g class="st14">
            <text class="st8" transform="translate(1702.9644 64.1603)"><tspan x="0" y="0">Prediction</tspan></text>
          </g>
        </g>
      </g>
    </g>
  </g>
  <rect class="st51" x="37.13" y="102.75" width="255" height="180" rx="16" ry="16"/>
  <g class="st14">
    <g class="st14">
      <g class="st14">
        <g class="st14">
          <g class="st14">
            <text class="st13" transform="translate(54 130)"><tspan x="0" y="0">Finance</tspan></text>
          </g>
        </g>
      </g>
    </g>
  </g>
  <g class="st107">
    <rect class="st78" x="74" y="162" width="142" height="70"/>
    <rect class="st110" x="84" y="154" width="142" height="70"/>
    <rect class="st95" x="94" y="146" width="142" height="70"/>
  </g>
  <g>
    <line class="st30" x1="94" y1="164" x2="236" y2="164"/>
    <line class="st30" x1="94" y1="182" x2="236" y2="182"/>
    <line class="st30" x1="94" y1="200" x2="236" y2="200"/>
    <line class="st30" x1="118" y1="146" x2="118" y2="216"/>
    <line class="st30" x1="142" y1="146" x2="142" y2="216"/>
    <line class="st30" x1="166" y1="146" x2="166" y2="216"/>
    <line class="st30" x1="190" y1="146" x2="190" y2="216"/>
    <line class="st30" x1="214" y1="146" x2="214" y2="216"/>
  </g>
  <polyline class="st39" points="99 201 119 190 139 194 159 169 179 177 199 160 220 164 232 152"/>
  <circle class="st93" cx="232" cy="152" r="4"/>
  <g class="st14">
    <g class="st14">
      <g class="st14">
        <g class="st14">
          <g class="st14">
            <text class="st10" transform="translate(90 262)"><tspan x="0" y="0">4 weeks × 31 series</tspan></text>
          </g>
        </g>
      </g>
    </g>
  </g>
  <rect class="st63" x="340.62" y="103.75" width="586" height="178" rx="20" ry="20"/>
  <g class="st14">
    <g class="st14">
      <g class="st14">
        <g class="st14">
          <g class="st14">
            <text class="st22" transform="translate(374 142)"><tspan x="0" y="0">TCN encoder</tspan></text>
          </g>
        </g>
      </g>
    </g>
  </g>
  <polygon class="st42" points="500.96 175 515.97 159 591 159 575.99 175 500.96 175"/>
  <polygon class="st113" points="569 175 591 159 591 245 569 261 569 175"/>
  <rect class="st75" x="500.08" y="175" width="68.92" height="86" rx="4" ry="4"/>
  <g class="st14">
    <g class="st14">
      <g class="st14">
        <g class="st14">
          <g class="st14">
            <text class="st6" transform="translate(507 226)"><tspan x="0" y="0">Conv 1</tspan></text>
          </g>
        </g>
      </g>
    </g>
  </g>
  <polygon class="st116" points="669.54 175 684.69 159 760.46 159 745.31 175 669.54 175"/>
  <polygon class="st109" points="738.46 175 760.46 159 760.46 245 738.46 261 738.46 175"/>
  <rect class="st112" x="669.54" y="175" width="68.92" height="86" rx="4" ry="4"/>
  <g class="st14">
    <g class="st14">
      <g class="st14">
        <g class="st14">
          <g class="st14">
            <text class="st6" transform="translate(673.66 226)"><tspan x="0" y="0">Conv 2</tspan></text>
          </g>
        </g>
      </g>
    </g>
  </g>
  <path class="st76" d="M2,29"/>
  <path class="st84" d="M614.33,192l36,18-36,18v-36Z"/>
  <path class="st84" d="M641,218" marker-end="url(#arrowBlue)"/>
  <path class="st84" d="M2,29"/>
  <path class="st84" d="M308,174.75l36,18-36,18v-36Z"/>
  <path class="st84" d="M338,192" marker-end="url(#arrowBlue)"/>
  <rect class="st48" x="37.13" y="318.75" width="255" height="205" rx="16" ry="16"/>
  <g class="st14">
    <g class="st14">
      <g class="st14">
        <g class="st14">
          <g class="st14">
            <text class="st11" transform="translate(54 347)"><tspan x="0" y="0">Remote sensing</tspan></text>
          </g>
        </g>
      </g>
    </g>
  </g>
  <g class="st106">
    <rect class="st115" x="70" y="387" width="150" height="78" rx="4" ry="4"/>
    <rect class="st108" x="80" y="377" width="150" height="78" rx="4" ry="4"/>
    <rect class="st96" x="90" y="367" width="150" height="78" rx="4" ry="4"/>
  </g>
  <g>
    <rect class="st98" x="99.53" y="367.98" width="130.79" height="69.72"/>
    <path class="st92" d="M90.81,414.46c26.16-20.56,38.37,7.15,61.91-16.09,19.18-18.77,35.75,1.79,54.93-20.56l31.39-.89v67.04H93.43l-2.62-29.5Z"/>
    <path class="st12" d="M99.53,384.07c20.93,8.05,33.13-.89,50.57,8.94,14.82,9.83,26.16,19.67,43.6,15.2,16.57-4.47,25.29,9.83,41.85,4.47"/>
    <path class="st26" d="M106.51,431.45l29.65-26.82,26.16,17.88,26.16-33.07,36.62,13.41"/>
    <g>
      <line class="st33" x1="125.69" y1="367.98" x2="125.69" y2="437.71"/>
      <line class="st33" x1="151.85" y1="367.98" x2="151.85" y2="437.71"/>
      <line class="st33" x1="178.01" y1="367.98" x2="178.01" y2="437.71"/>
      <line class="st33" x1="204.16" y1="367.98" x2="204.16" y2="437.71"/>
    </g>
  </g>
  <g class="st14">
    <g class="st14">
      <g class="st14">
        <g class="st14">
          <g class="st14">
            <text class="st10" transform="translate(90.18 491.46)"><tspan x="0" y="0">Sentinel-2 patches</tspan></text>
          </g>
        </g>
      </g>
    </g>
  </g>
  <g class="st14">
    <g class="st14">
      <g class="st14">
        <g class="st14">
          <g class="st14">
            <text class="st15" transform="translate(72 511.28)"><tspan x="0" y="0">4 weeks × 11 AOIs × 6 bands</tspan></text>
          </g>
        </g>
      </g>
    </g>
  </g>
  <rect class="st68" x="340.62" y="318.75" width="586" height="205" rx="20" ry="20"/>
  <g class="st14">
    <g class="st14">
      <g class="st14">
        <g class="st14">
          <g class="st14">
            <text class="st22" transform="translate(374 357)"><tspan x="0" y="0">RS encoder</tspan></text>
          </g>
        </g>
      </g>
    </g>
  </g>
  <polygon class="st86" points="381 400 397 389 542 389 526 400 381 400"/>
  <polygon class="st104" points="526 400 542 389 542 477 526 488 526 400"/>
  <rect class="st55" x="381" y="400" width="145" height="88" rx="6" ry="6"/>
  <g class="st14">
    <g class="st14">
      <g class="st14">
        <g class="st14">
          <g class="st14">
            <text class="st6" transform="translate(396.33 430)"><tspan x="0" y="0">Frozen Prithvi</tspan></text>
          </g>
        </g>
      </g>
    </g>
  </g>
  <g class="st14">
    <g class="st14">
      <g class="st14">
        <g class="st14">
          <g class="st14">
            <text class="st15" transform="translate(413.98 452)"><tspan x="0" y="0">EO-2.0-300M</tspan></text>
          </g>
        </g>
      </g>
    </g>
  </g>
  <g class="st14">
    <g class="st14">
      <g class="st14">
        <g class="st14">
          <g class="st14">
            <text class="st7" transform="translate(388.52 471)"><tspan x="0" y="0">HLS six-band adaptation</tspan></text>
          </g>
        </g>
      </g>
    </g>
  </g>
  <path class="st29" d="M516,398v-6c0-4.42,3.58-8,8-8s8,3.58,8,8v6"/>
  <rect class="st73" x="514" y="398" width="20" height="17" rx="3" ry="3"/>
  <rect class="st59" x="571" y="400" width="150" height="88" rx="12" ry="12"/>
  <g class="st14">
    <g class="st14">
      <g class="st14">
        <g class="st14">
          <g class="st14">
            <text class="st6" transform="translate(608.37 438)"><tspan x="0" y="0">Temporal</tspan></text>
          </g>
        </g>
      </g>
    </g>
  </g>
  <g class="st14">
    <g class="st14">
      <g class="st14">
        <g class="st14">
          <g class="st14">
            <text class="st6" transform="translate(610.12 462)"><tspan x="0" y="0">attention</tspan></text>
          </g>
        </g>
      </g>
    </g>
  </g>
  <rect class="st72" x="751" y="400" width="150" height="88" rx="12" ry="12"/>
  <g class="st14">
    <g class="st14">
      <g class="st14">
        <g class="st14">
          <g class="st14">
            <text class="st6" transform="translate(810.41 438)"><tspan x="0" y="0">Site</tspan></text>
          </g>
        </g>
      </g>
    </g>
  </g>
  <g class="st14">
    <g class="st14">
      <g class="st14">
        <g class="st14">
          <g class="st14">
            <text class="st6" transform="translate(790.12 462)"><tspan x="0" y="0">attention</tspan></text>
          </g>
        </g>
      </g>
    </g>
  </g>
  <path class="st76" d="M2,29"/>
  <path class="st111" d="M545,432l24,12-24,12v-24Z"/>
  <path class="st111" d="M563,444" marker-end="url(#arrowGreen)"/>
  <path class="st111" d="M2,29"/>
  <path class="st111" d="M725,432l24,12-24,12v-24Z"/>
  <path class="st111" d="M743,444" marker-end="url(#arrowGreen)"/>
  <path class="st111" d="M2,29"/>
  <path class="st111" d="M308,403.25l36,18-36,18v-36Z"/>
  <path class="st111" d="M338,421" marker-end="url(#arrowGreen)"/>
  <rect class="st56" x="37.13" y="562" width="255" height="190" rx="16" ry="16"/>
  <g class="st14">
    <g class="st14">
      <g class="st14">
        <g class="st14">
          <g class="st14">
            <text class="st0" transform="translate(54 590)"><tspan x="0" y="0">Shipping</tspan></text>
          </g>
        </g>
      </g>
    </g>
  </g>
  <g class="st105">
    <line class="st32" x1="90" y1="640" x2="130" y2="623"/>
    <line class="st32" x1="130" y1="623" x2="167" y2="649"/>
    <line class="st32" x1="167" y1="649" x2="215" y2="626"/>
    <line class="st32" x1="90" y1="640" x2="111" y2="682"/>
    <line class="st32" x1="111" y1="682" x2="158" y2="699"/>
    <line class="st32" x1="158" y1="699" x2="212" y2="682"/>
    <line class="st32" x1="215" y1="626" x2="233" y2="665"/>
    <line class="st32" x1="233" y1="665" x2="212" y2="682"/>
    <line class="st32" x1="130" y1="623" x2="158" y2="699"/>
    <line class="st32" x1="167" y1="649" x2="111" y2="682"/>
    <line class="st32" x1="167" y1="649" x2="212" y2="682"/>
  </g>
  <g>
    <circle class="st94" cx="90" cy="640" r="7"/>
    <circle class="st94" cx="130" cy="623" r="7"/>
    <circle class="st94" cx="167" cy="649" r="7"/>
    <circle class="st94" cx="215" cy="626" r="7"/>
    <circle class="st94" cx="111" cy="682" r="7"/>
    <circle class="st94" cx="158" cy="699" r="7"/>
    <circle class="st94" cx="212" cy="682" r="7"/>
    <circle class="st94" cx="233" cy="665" r="7"/>
  </g>
  <g>
    <circle class="st67" cx="74" cy="668" r="5"/>
    <circle class="st67" cx="102" cy="615" r="5"/>
    <circle class="st67" cx="146" cy="663" r="5"/>
    <circle class="st67" cx="184" cy="613" r="5"/>
    <circle class="st67" cx="195" cy="707" r="5"/>
    <circle class="st67" cx="240" cy="638" r="5"/>
  </g>
  <g class="st14">
    <g class="st14">
      <g class="st14">
        <g class="st14">
          <g class="st14">
            <text class="st10" transform="translate(90.18 734.44)"><tspan x="0" y="0">4 weeks × 17 nodes</tspan></text>
          </g>
        </g>
      </g>
    </g>
  </g>
  <rect class="st60" x="340.62" y="562" width="586" height="190" rx="20" ry="20"/>
  <g class="st14">
    <g class="st14">
      <g class="st14">
        <g class="st14">
          <g class="st14">
            <text class="st22" transform="translate(374 600)"><tspan x="0" y="0">GAT encoder</tspan></text>
          </g>
        </g>
      </g>
    </g>
  </g>
  <g>
    <line class="st38" x1="378" y1="668" x2="406" y2="650"/>
    <line class="st38" x1="378" y1="668" x2="404" y2="698"/>
    <line class="st38" x1="406" y1="650" x2="436" y2="672"/>
    <line class="st38" x1="404" y1="698" x2="436" y2="672"/>
    <line class="st38" x1="436" y1="672" x2="462" y2="652"/>
    <line class="st38" x1="436" y1="672" x2="464" y2="700"/>
  </g>
  <g>
    <circle class="st97" cx="378" cy="668" r="7"/>
    <circle class="st97" cx="406" cy="650" r="7"/>
    <circle class="st97" cx="404" cy="698" r="7"/>
    <circle class="st97" cx="436" cy="672" r="7"/>
    <circle class="st97" cx="462" cy="652" r="7"/>
    <circle class="st97" cx="464" cy="700" r="7"/>
  </g>
  <path class="st97" d="M2,29"/>
  <path class="st87" d="M480,664.35l24,12-24,12v-24Z"/>
  <path class="st87" d="M500,674" marker-end="url(#arrowOrange)"/>
  <g>
    <polygon class="st114" points="508 645.35 522 635.35 612 635.35 598 645.35 508 645.35"/>
    <polygon class="st79" points="598 645.35 612 635.35 612 707.35 598 717.35 598 645.35"/>
    <rect class="st58" x="508" y="645.35" width="90" height="72" rx="4" ry="4"/>
    <g class="st14">
      <g class="st14">
        <g class="st14">
          <g class="st14">
            <g class="st14">
              <text class="st6" transform="translate(535.69 687.35)"><tspan x="0" y="0">GAT</tspan></text>
            </g>
          </g>
        </g>
      </g>
    </g>
  </g>
  <path class="st76" d="M2,29"/>
  <path class="st87" d="M616,664.35l24,12-24,12v-24Z"/>
  <path class="st87" d="M636,674" marker-end="url(#arrowOrange)"/>
  <rect class="st57" x="642.75" y="638.35" width="103" height="76" rx="14" ry="14"/>
  <g class="st14">
    <g class="st14">
      <g class="st14">
        <g class="st14">
          <g class="st14">
            <text class="st6" transform="translate(676.78 680.44)"><tspan x="0" y="0">TCN</tspan></text>
          </g>
        </g>
      </g>
    </g>
  </g>
  <path class="st76" d="M2,29"/>
  <path class="st87" d="M757,664.35l24,12-24,12v-24Z"/>
  <path class="st87" d="M784,674" marker-end="url(#arrowOrange)"/>
  <rect class="st47" x="784" y="638.35" width="132.63" height="76" rx="14" ry="14"/>
  <g class="st14">
    <g class="st14">
      <g class="st14">
        <g class="st14">
          <g class="st14">
            <text class="st6" transform="translate(792.5 680.44)"><tspan x="0" y="0">Node attention</tspan></text>
          </g>
        </g>
      </g>
    </g>
  </g>
  <path class="st76" d="M2,29"/>
  <path class="st87" d="M308,639l36,18-36,18v-36Z"/>
  <path class="st87" d="M338,657" marker-end="url(#arrowOrange)"/>
  <path class="st87" d="M2,29"/>
  <path class="st84" d="M948,174.75l36,18-36,18v-36Z"/>
  <path class="st84" d="M978,193" marker-end="url(#arrowBlue)"/>
  <rect class="st70" x="987.86" y="145.5" width="40.29" height="100.71" rx="12" ry="12"/>
  <g>
    <circle class="st88" cx="1008" cy="155.57" r="6.04"/>
    <circle class="st88" cx="1008" cy="171.69" r="6.04"/>
    <circle class="st88" cx="1008" cy="187.8" r="6.04"/>
    <circle class="st88" cx="1008" cy="203.91" r="6.04"/>
    <circle class="st88" cx="1008" cy="220.03" r="6.04"/>
    <circle class="st88" cx="1008" cy="236.14" r="6.04"/>
  </g>
  <g class="st14">
    <g class="st14">
      <g class="st14">
        <g class="st14">
          <g class="st14">
            <text class="st18" transform="translate(992.83 269)"><tspan x="0" y="0">z_F</tspan></text>
          </g>
        </g>
      </g>
    </g>
  </g>
  <path class="st41" d="M2,29"/>
  <path class="st111" d="M948,403.25l36,18-36,18v-36Z"/>
  <path class="st111" d="M978,421" marker-end="url(#arrowGreen)"/>
  <rect class="st45" x="987.86" y="374.37" width="40.29" height="101.72" rx="12" ry="12"/>
  <g>
    <circle class="st103" cx="1008" cy="384.95" r="6.04"/>
    <circle class="st103" cx="1008" cy="401.06" r="6.04"/>
    <circle class="st103" cx="1008" cy="417.18" r="6.04"/>
    <circle class="st103" cx="1008" cy="433.29" r="6.04"/>
    <circle class="st103" cx="1008" cy="449.41" r="6.04"/>
    <circle class="st103" cx="1008" cy="465.52" r="6.04"/>
  </g>
  <g class="st14">
    <g class="st14">
      <g class="st14">
        <g class="st14">
          <g class="st14">
            <text class="st18" transform="translate(986.85 497)"><tspan x="0" y="0">z_RS</tspan></text>
          </g>
        </g>
      </g>
    </g>
  </g>
  <path class="st41" d="M2,29"/>
  <path class="st87" d="M948,639l36,18-36,18v-36Z"/>
  <path class="st87" d="M978,657" marker-end="url(#arrowOrange)"/>
  <rect class="st52" x="988" y="611.34" width="40" height="100" rx="12" ry="12"/>
  <g>
    <circle class="st102" cx="1008" cy="621.05" r="6.04"/>
    <circle class="st102" cx="1008" cy="637.16" r="6.04"/>
    <circle class="st102" cx="1008" cy="653.28" r="6.04"/>
    <circle class="st102" cx="1008" cy="669.39" r="6.04"/>
    <circle class="st102" cx="1008" cy="685.51" r="6.04"/>
    <circle class="st102" cx="1008" cy="701.62" r="6.04"/>
  </g>
  <g class="st14">
    <g class="st14">
      <g class="st14">
        <g class="st14">
          <g class="st14">
            <text class="st18" transform="translate(993.17 733)"><tspan x="0" y="0">z_S</tspan></text>
          </g>
        </g>
      </g>
    </g>
  </g>
  <path class="st34" d="M1028,196c44,0,50,159,64,159"/>
  <path class="st84" d="M1092,337l36,18-36,18v-36Z"/>
  <path class="st31" d="M1028,425h64"/>
  <path class="st111" d="M1092,407l36,18-36,18v-36Z"/>
  <path class="st37" d="M1028,661c44,0,50-166,64-166"/>
  <path class="st87" d="M1092,477l36,18-36,18v-36Z"/>
  <rect class="st99" x="1130" y="241.98" width="324" height="329.05" rx="28" ry="28"/>
  <g class="st14">
    <g class="st14">
      <g class="st14">
        <g class="st14">
          <g class="st14">
            <text class="st22" transform="translate(1220.8916 281.975)"><tspan x="0" y="0">Fusion module</tspan></text>
          </g>
        </g>
      </g>
    </g>
  </g>
  <g>
    <rect class="st46" x="1172" y="392.06" width="240" height="70" rx="16" ry="16"/>
    <g class="st14">
      <g class="st14">
        <g class="st14">
          <g class="st14">
            <g class="st14">
              <text class="st23" transform="translate(1212.1921 431.1532)"><tspan x="0" y="0">Gated fusion (main)</tspan></text>
            </g>
          </g>
        </g>
      </g>
    </g>
  </g>
  <g class="st14">
    <g class="st14">
      <g class="st14">
        <g class="st14">
          <g class="st14">
            <text class="st3" transform="translate(1144.6985 476.975)"><tspan x="0" y="0">or</tspan></text>
          </g>
        </g>
      </g>
    </g>
  </g>
  <g>
    <rect class="st44" x="1172" y="478.43" width="240" height="70" rx="16" ry="16"/>
    <g class="st14">
      <g class="st14">
        <g class="st14">
          <g class="st14">
            <g class="st14">
              <text class="st6" transform="translate(1229.1921 517.5209)"><tspan x="0" y="0">Cross-attention</tspan></text>
            </g>
          </g>
        </g>
      </g>
    </g>
  </g>
  <path class="st76" d="M2,29"/>
  <path class="st101" d="M1462,401.27l36,18-36,18v-36Z"/>
  <path class="st101" d="M1500,409" marker-end="url(#arrowPurple)"/>
  <rect class="st69" x="1502" y="319" width="220" height="188" rx="16" ry="16"/>
  <g class="st14">
    <g class="st14">
      <g class="st14">
        <text class="st5" transform="translate(1553.918 343)"><tspan x="0" y="0">Two-layer MLP</tspan></text>
      </g>
    </g>
  </g>
  <g class="st14">
    <g class="st14">
      <g class="st14">
        <text class="st19" transform="translate(1586.2104 489.4105)"><tspan x="0" y="0">Hidden layer</tspan></text>
      </g>
    </g>
  </g>
  <g class="st14">
    <g class="st14">
      <g class="st14">
        <text class="st19" transform="translate(1679 489.4105)"><tspan x="0" y="0">Output</tspan></text>
      </g>
    </g>
  </g>
  <g>
    <line class="st28" x1="1539" y1="377" x2="1615" y2="377"/>
    <line class="st28" x1="1539" y1="377" x2="1615" y2="392"/>
    <line class="st28" x1="1539" y1="377" x2="1615" y2="407"/>
    <line class="st28" x1="1539" y1="377" x2="1615" y2="422"/>
    <line class="st28" x1="1539" y1="377" x2="1615" y2="437"/>
    <line class="st28" x1="1539" y1="392" x2="1615" y2="377"/>
    <line class="st28" x1="1539" y1="392" x2="1615" y2="392"/>
    <line class="st28" x1="1539" y1="392" x2="1615" y2="407"/>
    <line class="st28" x1="1539" y1="392" x2="1615" y2="422"/>
    <line class="st28" x1="1539" y1="392" x2="1615" y2="437"/>
    <line class="st28" x1="1539" y1="407" x2="1615" y2="377"/>
    <line class="st28" x1="1539" y1="407" x2="1615" y2="392"/>
    <line class="st28" x1="1539" y1="407" x2="1615" y2="407"/>
    <line class="st28" x1="1539" y1="407" x2="1615" y2="422"/>
    <line class="st28" x1="1539" y1="407" x2="1615" y2="437"/>
    <line class="st28" x1="1539" y1="422" x2="1615" y2="377"/>
    <line class="st28" x1="1539" y1="422" x2="1615" y2="392"/>
    <line class="st28" x1="1539" y1="422" x2="1615" y2="407"/>
    <line class="st28" x1="1539" y1="422" x2="1615" y2="422"/>
    <line class="st28" x1="1539" y1="422" x2="1615" y2="437"/>
    <line class="st28" x1="1539" y1="437" x2="1615" y2="377"/>
    <line class="st28" x1="1539" y1="437" x2="1615" y2="392"/>
    <line class="st28" x1="1539" y1="437" x2="1615" y2="407"/>
    <line class="st28" x1="1539" y1="437" x2="1615" y2="422"/>
    <line class="st28" x1="1539" y1="437" x2="1615" y2="437"/>
    <line class="st28" x1="1615" y1="377" x2="1693" y2="407"/>
    <line class="st28" x1="1615" y1="392" x2="1693" y2="407"/>
    <line class="st28" x1="1615" y1="407" x2="1693" y2="407"/>
    <line class="st28" x1="1615" y1="422" x2="1693" y2="407"/>
    <line class="st28" x1="1615" y1="437" x2="1693" y2="407"/>
  </g>
  <g>
    <circle class="st81" cx="1539" cy="377" r="6.2"/>
    <circle class="st81" cx="1539" cy="392" r="6.2"/>
    <circle class="st81" cx="1539" cy="407" r="6.2"/>
    <circle class="st81" cx="1539" cy="422" r="6.2"/>
    <circle class="st81" cx="1539" cy="437" r="6.2"/>
  </g>
  <g>
    <circle class="st80" cx="1615" cy="377" r="6.2"/>
    <circle class="st80" cx="1615" cy="392" r="6.2"/>
    <circle class="st80" cx="1615" cy="407" r="6.2"/>
    <circle class="st80" cx="1615" cy="422" r="6.2"/>
    <circle class="st80" cx="1615" cy="437" r="6.2"/>
  </g>
  <circle class="st82" cx="1693" cy="407" r="8"/>
  <g>
    <circle class="st91" cx="1539" cy="453" r="1.6"/>
    <circle class="st91" cx="1539" cy="459" r="1.6"/>
    <circle class="st91" cx="1539" cy="465" r="1.6"/>
    <circle class="st91" cx="1615" cy="453" r="1.6"/>
    <circle class="st91" cx="1615" cy="459" r="1.6"/>
    <circle class="st91" cx="1615" cy="465" r="1.6"/>
  </g>
  <g class="st14">
    <g class="st14">
      <g class="st14">
        <text class="st2" transform="translate(1536.8931 488.93)"><tspan x="0" y="0">z</tspan></text>
      </g>
    </g>
  </g>
  <path class="st36" d="M1456,516c43.45,85.13,71.48,174.75,89,261"/>
  <g class="st14">
    <g class="st14">
      <g class="st14">
        <g class="st14">
          <g class="st14">
            <text class="st22" transform="translate(55.24 818.8)"><tspan x="0" y="0">Fusion module detail</tspan></text>
          </g>
        </g>
      </g>
    </g>
  </g>
  <line class="st35" x1="359.87" y1="844" x2="359.87" y2="1060"/>
  <g class="st14">
    <g class="st14">
      <g class="st14">
        <g class="st14">
          <g class="st14">
            <text class="st16" transform="translate(112.5 861.31)"><tspan x="0" y="0" xml:space="preserve">A    Concatenation</tspan></text>
          </g>
        </g>
      </g>
    </g>
  </g>
  <g class="st14">
    <text class="st25" transform="translate(85.83 968)"><tspan x="0" y="0">h</tspan></text>
    <text class="st89" transform="translate(95.84 968)"><tspan x="0" y="0"> </tspan></text>
    <text class="st21" transform="translate(100.84 971.6)"><tspan x="0" y="0">cat</tspan></text>
    <text class="st89" transform="translate(117.65 968)"><tspan x="0" y="0"> </tspan></text>
    <text class="st17" transform="translate(122.65 968)"><tspan x="0" y="0">= Concat(</tspan></text>
    <text class="st89" transform="translate(201.19 968)"><tspan x="0" y="0"> </tspan></text>
    <text class="st25" transform="translate(206.19 968)"><tspan x="0" y="0">z</tspan></text>
    <text class="st89" transform="translate(215.19 968)"><tspan x="0" y="0"> </tspan></text>
    <text class="st21" transform="translate(220.19 971.6)"><tspan x="0" y="0">m</tspan></text>
    <text class="st89" transform="translate(230.68 968)"><tspan x="0" y="0"> </tspan></text>
    <text class="st17" transform="translate(235.69 968)"><tspan x="0" y="0">: </tspan></text>
    <text class="st25" transform="translate(245.69 968)"><tspan x="0" y="0">m</tspan></text>
    <text class="st89" transform="translate(260.68 968)"><tspan x="0" y="0"> </tspan></text>
    <text class="st20" transform="translate(265.68 968)"><tspan class="st77" x="0" y="0">∈</tspan><tspan class="st90" x="18" y="0"> </tspan></text>
    <text class="st25" transform="translate(284.18 968)"><tspan x="0" y="0">M</tspan></text>
    <text class="st89" transform="translate(299.18 968)"><tspan x="0" y="0"> </tspan></text>
    <text class="st17" transform="translate(304.18 968)"><tspan x="0" y="0">)</tspan></text>
  </g>
  <path class="st41" d="M2,29"/>
  <path class="st41" d="M2,29"/>
  <path class="st83" d="M2,29"/>
  <path class="st41" d="M2,29"/>
  <g>
    <g>
      <rect class="st71" x="429" y="890" width="58" height="100" rx="10" ry="10"/>
      <rect class="st53" x="499" y="890" width="58" height="100" rx="10" ry="10"/>
      <rect class="st49" x="569" y="890" width="58" height="100" rx="10" ry="10"/>
      <g class="st14">
        <g class="st14">
          <g class="st14">
            <g class="st14">
              <g class="st14">
                <text class="st18" transform="translate(442.83 948)"><tspan x="0" y="0">z_F</tspan></text>
              </g>
            </g>
          </g>
        </g>
      </g>
      <g class="st14">
        <g class="st14">
          <g class="st14">
            <g class="st14">
              <g class="st14">
                <text class="st18" transform="translate(506.85 948)"><tspan x="0" y="0">z_RS</tspan></text>
              </g>
            </g>
          </g>
        </g>
      </g>
      <g class="st14">
        <g class="st14">
          <g class="st14">
            <g class="st14">
              <g class="st14">
                <text class="st18" transform="translate(583.17 948)"><tspan x="0" y="0">z_S</tspan></text>
              </g>
            </g>
          </g>
        </g>
      </g>
    </g>
    <path class="st101" d="M635,922l36,18-36,18v-36Z"/>
    <path class="st101" d="M667,940" marker-end="url(#arrowPurple)"/>
    <rect class="st54" x="675" y="884" width="150" height="112" rx="16" ry="16"/>
    <g class="st14">
      <g class="st14">
        <g class="st14">
          <g class="st14">
            <g class="st14">
              <text class="st6" transform="translate(696.15 928)"><tspan x="0" y="0">Gate network</tspan></text>
            </g>
          </g>
        </g>
      </g>
    </g>
    <g class="st14">
      <g class="st14">
        <g class="st14">
          <g class="st14">
            <g class="st14">
              <text class="st18" transform="translate(691.48 968)"><tspan x="0" y="0">α = softmax(s)</tspan></text>
            </g>
          </g>
        </g>
      </g>
    </g>
    <path class="st101" d="M831,922l36,18-36,18v-36Z"/>
    <path class="st101" d="M861,940" marker-end="url(#arrowPurple)"/>
    <g>
      <circle class="st43" cx="889" cy="912" r="16"/>
      <circle class="st66" cx="889" cy="940" r="16"/>
      <circle class="st50" cx="889" cy="968" r="16"/>
      <g class="st14">
        <g class="st14">
          <g class="st14">
            <g class="st14">
              <g class="st14">
                <text class="st7" transform="translate(882.26 916)"><tspan x="0" y="0">αF</tspan></text>
              </g>
            </g>
          </g>
        </g>
      </g>
      <g class="st14">
        <g class="st14">
          <g class="st14">
            <g class="st14">
              <g class="st14">
                <text class="st7" transform="translate(877.98 944)"><tspan x="0" y="0">αRS</tspan></text>
              </g>
            </g>
          </g>
        </g>
      </g>
      <g class="st14">
        <g class="st14">
          <g class="st14">
            <g class="st14">
              <g class="st14">
                <text class="st7" transform="translate(881.95 972)"><tspan x="0" y="0">αS</tspan></text>
              </g>
            </g>
          </g>
        </g>
      </g>
    </g>
    <path class="st101" d="M917,922l36,18-36,18v-36Z"/>
    <path class="st101" d="M942,940" marker-end="url(#arrowPurple)"/>
    <circle class="st100" cx="984.94" cy="940" r="28"/>
    <g class="st14">
      <g class="st14">
        <g class="st14">
          <g class="st14">
            <g class="st14">
              <text class="st18" transform="translate(979.62 947)"><tspan x="0" y="0">Σ</tspan></text>
            </g>
          </g>
        </g>
      </g>
    </g>
    <path class="st101" d="M1019,922l36,18-36,18v-36Z"/>
    <path class="st101" d="M1048,940" marker-end="url(#arrowPurple)"/>
    <rect class="st62" x="1061" y="908" width="70" height="64" rx="12" ry="12"/>
    <g class="st14">
      <g class="st14">
        <g class="st14">
          <g class="st14">
            <g class="st14">
              <text class="st18" transform="translate(1080 947)"><tspan x="0" y="0">h_g</tspan></text>
            </g>
          </g>
        </g>
      </g>
    </g>
    <g class="st14">
      <g class="st14">
        <g class="st14">
          <g class="st14">
            <g class="st14">
              <text class="st18" transform="translate(654.9644 1046.1509)"><tspan x="0" y="0">h_g = Σ</tspan></text>
            </g>
          </g>
        </g>
      </g>
      <g class="st14">
        <g class="st14">
          <g class="st14">
            <g class="st14">
              <text class="st24" transform="translate(718.0944 1046.1509)"><tspan x="0" y="0">ₘ</tspan></text>
            </g>
          </g>
        </g>
      </g>
      <g class="st14">
        <g class="st14">
          <g class="st14">
            <g class="st14">
              <text class="st18" transform="translate(736.0944 1046.1509)"><tspan x="0" y="0" xml:space="preserve"> α</tspan></text>
            </g>
          </g>
        </g>
      </g>
      <g class="st14">
        <g class="st14">
          <g class="st14">
            <g class="st14">
              <text class="st24" transform="translate(751.2044 1046.1509)"><tspan x="0" y="0">ₘ</tspan></text>
            </g>
          </g>
        </g>
      </g>
      <g class="st14">
        <g class="st14">
          <g class="st14">
            <g class="st14">
              <text class="st18" transform="translate(769.2044 1046.1509)"><tspan x="0" y="0" xml:space="preserve"> z</tspan></text>
            </g>
          </g>
        </g>
      </g>
      <g class="st14">
        <g class="st14">
          <g class="st14">
            <g class="st14">
              <text class="st24" transform="translate(781.5344 1046.1509)"><tspan x="0" y="0">ₘ</tspan></text>
            </g>
          </g>
        </g>
      </g>
      <g class="st14">
        <g class="st14">
          <g class="st14">
            <g class="st14">
              <text class="st18" transform="translate(799.5344 1046.1509)"><tspan x="0" y="0" xml:space="preserve"> , Σ</tspan></text>
            </g>
          </g>
        </g>
      </g>
      <g class="st14">
        <g class="st14">
          <g class="st14">
            <g class="st14">
              <text class="st24" transform="translate(823.9344 1046.1509)"><tspan x="0" y="0">ₘ</tspan></text>
            </g>
          </g>
        </g>
      </g>
      <g class="st14">
        <g class="st14">
          <g class="st14">
            <g class="st14">
              <text class="st18" transform="translate(841.9344 1046.1509)"><tspan x="0" y="0" xml:space="preserve"> α</tspan></text>
            </g>
          </g>
        </g>
      </g>
      <g class="st14">
        <g class="st14">
          <g class="st14">
            <g class="st14">
              <text class="st24" transform="translate(857.0444 1046.1509)"><tspan x="0" y="0">ₘ</tspan></text>
            </g>
          </g>
        </g>
      </g>
      <g class="st14">
        <g class="st14">
          <g class="st14">
            <g class="st14">
              <text class="st18" transform="translate(875.0444 1046.1509)"><tspan x="0" y="0" xml:space="preserve"> = 1</tspan></text>
            </g>
          </g>
        </g>
      </g>
    </g>
  </g>
  <g class="st14">
    <g class="st14">
      <g class="st14">
        <g class="st14">
          <g class="st14">
            <text class="st9" transform="translate(637.75 861.31)"><tspan x="0" y="0">B</tspan></text>
          </g>
        </g>
      </g>
      <g class="st14">
        <g class="st14">
          <g class="st14">
            <text class="st9" transform="translate(652.92 861.31)"><tspan x="0" y="0" xml:space="preserve">    </tspan></text>
          </g>
        </g>
      </g>
      <g class="st14">
        <g class="st14">
          <g class="st14">
            <text class="st9" transform="translate(676.25 861.31)"><tspan x="0" y="0">Gated fusion — main</tspan></text>
          </g>
        </g>
      </g>
    </g>
  </g>
  <path class="st76" d="M2,29"/>
  <g>
    <rect class="st71" x="1252.22" y="888.3" width="80" height="52" rx="10" ry="10"/>
    <g class="st14">
      <g class="st14">
        <g class="st14">
          <g class="st14">
            <g class="st14">
              <text class="st18" transform="translate(1276.3882 914.3027)"><tspan x="0" y="0">z_F</tspan></text>
            </g>
          </g>
        </g>
      </g>
    </g>
    <g class="st14">
      <g class="st14">
        <g class="st14">
          <g class="st14">
            <g class="st14">
              <text class="st7" transform="translate(1271.4353 932.3027)"><tspan x="0" y="0">query Q</tspan></text>
            </g>
          </g>
        </g>
      </g>
    </g>
    <rect class="st61" x="1252.94" y="952.3" width="80" height="70" rx="10" ry="10"/>
    <g>
      <circle class="st103" cx="1266.67" cy="972.3" r="6"/>
      <circle class="st103" cx="1284.67" cy="972.3" r="6"/>
      <circle class="st103" cx="1302.67" cy="972.3" r="6"/>
      <circle class="st103" cx="1320.67" cy="972.3" r="6"/>
      <circle class="st102" cx="1266.67" cy="992.3" r="6"/>
      <circle class="st102" cx="1284.67" cy="992.3" r="6"/>
      <circle class="st102" cx="1302.67" cy="992.3" r="6"/>
      <circle class="st102" cx="1320.67" cy="992.3" r="6"/>
    </g>
    <g class="st14">
      <g class="st14">
        <g class="st14">
          <g class="st14">
            <g class="st14">
              <text class="st7" transform="translate(1273.0831 1013.3027)"><tspan x="0" y="0">H (K, V)</tspan></text>
            </g>
          </g>
        </g>
      </g>
    </g>
    <path class="st40" d="M1332,914.3c14,0,14,36,24,36"/>
    <path class="st40" d="M1332,987.3c14,0,14-37,24-37"/>
    <path class="st85" d="M1356,938.3l24,12-24,12v-24Z"/>
    <rect class="st65" x="1384" y="896.3" width="250" height="120" rx="16" ry="16"/>
    <g class="st14">
      <g class="st14">
        <g class="st14">
          <g class="st14">
            <g class="st14">
              <text class="st6" transform="translate(1428.2583 962.3027)"><tspan x="0" y="0">Multi-head attention</tspan></text>
            </g>
          </g>
        </g>
      </g>
    </g>
    <path class="st85" d="M1650,938.3l36,18-36,18v-36Z"/>
    <path class="st85" d="M1680,956.3" marker-end="url(#arrow)"/>
    <rect class="st64" x="1698.06" y="918.3" width="100" height="76" rx="12" ry="12"/>
    <g class="st14">
      <g class="st14">
        <g class="st14">
          <g class="st14">
            <g class="st14">
              <text class="st7" transform="translate(1713.3712 948.3027)"><tspan x="0" y="0">LN + residual</tspan></text>
            </g>
          </g>
        </g>
      </g>
    </g>
    <g class="st14">
      <g class="st14">
        <g class="st14">
          <g class="st14">
            <g class="st14">
              <text class="st18" transform="translate(1732.5148 974.3027)"><tspan x="0" y="0">h_x</tspan></text>
            </g>
          </g>
        </g>
      </g>
    </g>
    <g class="st14">
      <g class="st14">
        <g class="st14">
          <g class="st14">
            <g class="st14">
              <text class="st18" transform="translate(1419.2368 1046.1519)"><tspan x="0" y="0">h_x = LN(z_F + γ · Attn(z_F, H))</tspan></text>
            </g>
          </g>
        </g>
      </g>
    </g>
  </g>
  <path class="st36" d="M1127.94,517.74c.97,47.01-9.14,94.2-29.29,136.75-12.01,25.35-27.65,49.19-47.72,68.89-36.52,35.85-87.58,56.66-138.93,56.61"/>
  <path class="st85" d="M1194,759.88"/>
  <rect class="st51" x="1770.82" y="389.96" width="83.04" height="58.62" rx="16" ry="16"/>
  <path class="st27" d="M1729,401.27l36,18-36,18v-36Z"/>
  <g class="st14">
    <g class="st14">
      <g class="st14">
        <g class="st14">
          <text class="st1" transform="translate(1794.0345 423.1803)"><tspan x="0" y="0">P</tspan></text>
        </g>
      </g>
    </g>
    <g class="st14">
      <g class="st14">
        <g class="st14">
          <text class="st4" transform="translate(1807.89 429.6715)"><tspan x="0" y="0">t+1</tspan></text>
        </g>
      </g>
    </g>
  </g>
  <g>
    <rect class="st44" x="1172" y="305.69" width="240" height="70" rx="16" ry="16"/>
    <g class="st14">
      <g class="st14">
        <g class="st14">
          <g class="st14">
            <g class="st14">
              <text class="st6" transform="translate(1229.1921 344.7855)"><tspan x="0" y="0">Concatenation</tspan></text>
            </g>
          </g>
        </g>
      </g>
    </g>
  </g>
  <g class="st14">
    <g class="st14">
      <g class="st14">
        <g class="st14">
          <g class="st14">
            <text class="st3" transform="translate(1144.699 390.975)"><tspan x="0" y="0">or</tspan></text>
          </g>
        </g>
      </g>
    </g>
  </g>
  <line class="st35" x1="1196.11" y1="844" x2="1196.11" y2="1060"/>
  <g class="st14">
    <g class="st14">
      <g class="st14">
        <g class="st14">
          <g class="st14">
            <text class="st16" transform="translate(1410.2156 861.3099)"><tspan x="0" y="0">C</tspan></text>
          </g>
        </g>
      </g>
      <g class="st14">
        <g class="st14">
          <g class="st14">
            <text class="st16" transform="translate(1425.3856 861.3099)"><tspan x="0" y="0" xml:space="preserve">    </tspan></text>
          </g>
        </g>
      </g>
      <g class="st14">
        <g class="st14">
          <g class="st14">
            <text class="st16" transform="translate(1448.7156 861.3099)"><tspan x="0" y="0">Cross-attention</tspan></text>
          </g>
        </g>
      </g>
    </g>
  </g>
</svg>